<!-- google.svg -->

<svg xmlns="http://www.w3.org/2000/svg" viewBox="0 0 24 24">
  <path d="M22 12c0-1.18-.19-2.34-.54-3.42H12v6.48h5.99c-.24 1.33-1.06 2.45-2.26 3.25v2.71h3.66c2.15-1.98 3.38-4.88 3.38-8.02z" fill="#4285F4"/>
  <path d="M12 23c3.07 0 5.63-1.02 7.51-2.75l-3.66-2.71c-1.02.68-2.26 1.08-3.85 1.08-2.95 0-5.45-1.99-6.34-4.67H1.21v2.91C3.08 21.31 7.01 23 12 23z" fill="#34A853"/>
  <path d="M5.66 14.25c-.19-.57-.3-1.18-.3-1.8s.11-1.23.3-1.8V7.74H2.86A11.96 11.96 0 0 0 0 12c0 1.95.47 3.8 1.3 5.42l3.36-2.91z" fill="#FBBC05"/>
  <path d="M12 4.58c1.68 0 3.2.58 4.4 1.72l3.36-3.36C17.63 1.09 15.07 0 12 0 7.01 0 3.08 1.69 1.21 4.57l3.45 2.99c.89-2.68 3.39-4.58 6.34-4.58z" fill="#EA4335"/>
</svg>
