<!-- instagram.svg -->

<svg xmlns="http://www.w3.org/2000/svg" viewBox="0 0 24 24">
  <path d="M17.5 0H6.5C2.9 0 0 2.9 0 6.5V17.5C0 21.1 2.9 24 6.5 24H17.5C21.1 24 24 21.1 24 17.5V6.5C24 2.9 21.1 0 17.5 0ZM19.3 4.8C19.7 4.8 20 5.1 20 5.5S19.7 6.2 19.3 6.2H18.5C18.1 6.2 17.8 5.9 17.8 5.5S18.1 4.8 18.5 4.8H19.3ZM12 15.6C9.3 15.6 7.4 13.7 7.4 11S9.3 6.4 12 6.4 16.6 8.3 16.6 11 14.7 15.6 12 15.6ZM19.5 20.6C19.1 20.6 18.8 20.3 18.8 19.9S19.1 19.2 19.5 19.2H19.9C20.3 19.2 20.6 19.5 20.6 19.9S20.3 20.6 19.9 20.6H19.5Z" fill="#000"/>
</svg>
