<svg xmlns="http://www.w3.org/2000/svg" viewBox="0 0 24 24" fill="#000000">
  <path d="M22.46,5.54c-0.69,0.31-1.44,0.52-2.22,0.62c0.8-0.48,1.41-1.25,1.69-2.17c-0.74,0.44-1.55,0.76-2.42,0.94
	c-0.69-0.74-1.68-1.2-2.77-1.2c-2.1,0-3.81,1.71-3.81,3.81c0,0.3,0.03,0.59,0.09,0.87C9.65,8.3,5.14,6.14,2.1,3.16
	c-0.33,0.57-0.52,1.24-0.52,1.96c0,1.32,0.67,2.49,1.69,3.17c-0.62-0.02-1.2-0.19-1.71-0.47c0,0.02,0,0.03,0,0.05
	c0,1.84,1.31,3.38,3.05,3.73c-0.32,0.08-0.66,0.13-1.01,0.13c-0.24,0-0.48-0.02-0.71-0.07c0.48,1.5,1.89,2.59,3.56,2.62
	c-1.31,1.04-2.96,1.66-4.76,1.66c-0.31,0-0.62-0.02-0.92-0.05c1.69,1.08,3.69,1.71,5.83,1.71c7,0,10.83-5.8,10.83-10.83
	c0-0.16,0-0.32-0.01-0.47C21.25,7.01,21.92,6.32,22.46,5.54z"/>
</svg>
